<svg id="Capa_1" data-name="Capa 1" xmlns="http://www.w3.org/2000/svg" viewBox="0 0 26.5 26.23"><defs><style>.cls-1{fill:#fff;}.cls-1,.cls-2,.cls-3,.cls-4{stroke:#e6484b;stroke-width:1.5px;}.cls-1,.cls-2,.cls-3{stroke-miterlimit:10;}.cls-2,.cls-3,.cls-4{fill:none;}.cls-3,.cls-4{stroke-linecap:round;}.cls-4{stroke-linejoin:round;}</style></defs><g id="Icon_-_Calendar" data-name="Icon - Calendar"><path id="Trazado_5303" data-name="Trazado 5303" class="cls-1" d="M25.33,25.74H8.54a2.23,2.23,0,0,1-2.23-2.23V8A2.24,2.24,0,0,1,8.54,5.79H25.33A2.24,2.24,0,0,1,27.56,8V23.51A2.23,2.23,0,0,1,25.33,25.74Z" transform="translate(-5.56 -2.87)"/><line id="Línea_80" data-name="Línea 80" class="cls-2" x1="0.75" y1="8.54" x2="22.01" y2="8.54"/><line id="Línea_81" data-name="Línea 81" class="cls-3" x1="5.34" y1="0.75" x2="5.34" y2="4.94"/><line id="Línea_82" data-name="Línea 82" class="cls-3" x1="17.72" y1="0.75" x2="17.72" y2="4.94"/><line id="Línea_83" data-name="Línea 83" class="cls-3" x1="11.38" y1="0.75" x2="11.38" y2="4.94"/><g id="Grupo_3183" data-name="Grupo 3183"><circle id="Elipse_52" data-name="Elipse 52" class="cls-1" cx="21.1" cy="20.83" r="4.65"/><path id="Trazado_5304" data-name="Trazado 5304" class="cls-3" d="M26.66,20.74v3h2.21" transform="translate(-5.56 -2.87)"/></g><g id="Grupo_3184" data-name="Grupo 3184"><line id="Línea_84" data-name="Línea 84" class="cls-4" x1="4.33" y1="14.98" x2="11.3" y2="14.98"/><path id="Trazado_5305" data-name="Trazado 5305" class="cls-4" d="M15.73,15.42l2.44,2.44-2.44,2.43" transform="translate(-5.56 -2.87)"/></g></g></svg>