<svg id="Capa_1" data-name="Capa 1" xmlns="http://www.w3.org/2000/svg" viewBox="0 0 34.23 30.24"><defs><style>.cls-1,.cls-2,.cls-3{fill:none;stroke:#e6484b;stroke-width:1.5px;}.cls-1,.cls-2{stroke-linecap:round;}.cls-1{stroke-linejoin:round;}.cls-2,.cls-3{stroke-miterlimit:10;}</style></defs><g id="Content_Icon" data-name="Content Icon"><g id="Icon_-_Car_-_PikUp" data-name="Icon - Car - PikUp"><g id="Grupo_4558" data-name="Grupo 4558"><line id="Línea_351" data-name="Línea 351" class="cls-1" x1="23.51" y1="4.87" x2="32.01" y2="4.87"/><path id="Trazado_6288" data-name="Trazado 6288" class="cls-1" d="M29.88,1.1,34,5.23,29.88,9.35" transform="translate(-0.52 -0.35)"/></g><g id="Grupo_4561" data-name="Grupo 4561"><g id="Grupo_4559" data-name="Grupo 4559"><path id="Trazado_6289" data-name="Trazado 6289" class="cls-2" d="M3.78,26.06h0a1.47,1.47,0,0,1-1.46-1.45,1.33,1.33,0,0,1,0-.28l.91-4.79h-1a1,1,0,0,1-1-1,1,1,0,0,1,.06-.34l.56-1.47a1,1,0,0,1,.9-.62h1l3.59-5.21a4,4,0,0,1,3.26-1.71h9.59a4,4,0,0,1,3.17,1.57l4,5.34h1.06a1,1,0,0,1,.89.62l.56,1.48a1,1,0,0,1-.55,1.23,1,1,0,0,1-.34.06h-.9l.74,4.85A1.44,1.44,0,0,1,27.67,26a.82.82,0,0,1-.22,0h0v2.36A1.43,1.43,0,0,1,26,29.84H23.35a1.43,1.43,0,0,1-1.43-1.43V26.05H9v2.36a1.43,1.43,0,0,1-1.43,1.43H5.21a1.43,1.43,0,0,1-1.43-1.43Z" transform="translate(-0.52 -0.35)"/><path id="Trazado_6290" data-name="Trazado 6290" class="cls-2" d="M8.17,18.2h15a.54.54,0,0,0,.56-.48.59.59,0,0,0-.1-.34L21,13.77a3.09,3.09,0,0,0-2.48-1.21H12.43A3.08,3.08,0,0,0,9.81,14L7.69,17.42a.53.53,0,0,0,.48.78Z" transform="translate(-0.52 -0.35)"/></g><g id="Grupo_4560" data-name="Grupo 4560"><path id="Trazado_6291" data-name="Trazado 6291" class="cls-3" d="M21.08,22.42l1-1.3,2.67-.47" transform="translate(-0.52 -0.35)"/><path id="Trazado_6292" data-name="Trazado 6292" class="cls-3" d="M10.19,22.42l-1-1.3-2.67-.47" transform="translate(-0.52 -0.35)"/></g></g></g></g></svg>