<svg id="Logo" xmlns="http://www.w3.org/2000/svg" width="78.664" height="34" viewBox="0 0 78.664 34">
<style>
	.st0{
		fill: #000;
	}
	<!-- @media (prefers-color-scheme: dark) {
		.st0{
			fill: #A0A0A0;
		}
	} -->
</style>
  <g id="Content_Logo" data-name="Content Logo" transform="translate(-205.789 -139.519)">
    <path class="st0" id="Tagline" d="M617.867,541.275a2.391,2.391,0,0,1-.761-.119,2.265,2.265,0,0,1-.649-.338,2.23,2.23,0,0,1-.5-.52,2.382,2.382,0,0,1-.321-.675,2.869,2.869,0,0,1,0-1.6,2.575,2.575,0,0,1,.328-.7,2.355,2.355,0,0,1,.5-.543,2.2,2.2,0,0,1,.646-.351,2.28,2.28,0,0,1,.751-.123,2.341,2.341,0,0,1,.689.1,2.086,2.086,0,0,1,.589.285,2.05,2.05,0,0,1,.46.443,1.869,1.869,0,0,1,.295.583l-.954.238a1.286,1.286,0,0,0-.444-.546,1.119,1.119,0,0,0-.649-.2,1.159,1.159,0,0,0-.52.119,1.241,1.241,0,0,0-.417.334,1.624,1.624,0,0,0-.275.506,2.1,2.1,0,0,0,0,1.265,1.47,1.47,0,0,0,.275.493,1.219,1.219,0,0,0,.953.434,1.187,1.187,0,0,0,.665-.189,1.308,1.308,0,0,0,.46-.553l.953.238a1.938,1.938,0,0,1-.44.748,2.06,2.06,0,0,1-.718.49A2.391,2.391,0,0,1,617.867,541.275Zm6.939-.132,1.867-4.7h1.046l1.874,4.7H628.58l-.384-1.033h-2.033l-.384,1.033Zm1.669-1.867h1.41l-.708-1.874Zm8.329,1.867v-4.7h1.51a2.5,2.5,0,0,1,1,.182,1.372,1.372,0,0,1,.871,1.328,1.388,1.388,0,0,1-.1.52,1.537,1.537,0,0,1-.278.45,1.5,1.5,0,0,1-.43.334l1.066,1.887h-1.086l-.841-1.629q-.126.007-.271.006a3,3,0,0,1-.464-.04v1.662Zm.973-3.867v1.384q.126.02.252.03t.265.01a1.013,1.013,0,0,0,.655-.189.641.641,0,0,0,.232-.526.631.631,0,0,0-.232-.523,1.026,1.026,0,0,0-.655-.185Zm10.683,3.867v-4.7h1.51a2.5,2.5,0,0,1,1,.182,1.372,1.372,0,0,1,.87,1.328,1.388,1.388,0,0,1-.1.52,1.534,1.534,0,0,1-.278.45,1.5,1.5,0,0,1-.43.334l1.066,1.887h-1.086l-.841-1.629q-.126.006-.271.007a2.986,2.986,0,0,1-.464-.04v1.662Zm.974-3.867v1.384q.126.02.252.03t.265.01a1.013,1.013,0,0,0,.655-.189.641.641,0,0,0,.232-.526.632.632,0,0,0-.232-.523,1.026,1.026,0,0,0-.655-.185Zm7.879,3.867v-4.7h2.946v.841h-1.993v1.026h1.781v.841h-1.781V540.3h2.059v.841Zm8.475,0v-4.7h.854l2.178,3.112v-3.112h.953v4.7h-.854l-2.178-3.112v3.112Zm10.687,0v-3.827H673.15v-.874h3.635v.874h-1.324v3.827Zm6.78,0,1.867-4.7h1.046l1.874,4.7h-1.013l-.384-1.033h-2.032l-.384,1.033Zm1.669-1.867h1.41l-.708-1.874Zm8.329,1.867v-4.7h.987v3.827h1.92v.874Z" transform="translate(-409.727 -367.756)"/>
    <path id="Miles" d="M678.786,301.146a18.52,18.52,0,0,0,.039-3.425A9.134,9.134,0,0,0,670.1,290.2c-.089,0-.178,0-.267,0a9.133,9.133,0,0,0,0,18.265c.089,0,.178,0,.267,0s.178,0,.267,0a9.12,9.12,0,0,0,7.368-3.733l-3.918-1.961a4.151,4.151,0,0,1-3.4,1.783c-.1,0-.2,0-.3-.011s-.183.011-.276.011a3.558,3.558,0,0,1-3.55-3.407ZM666.3,297.721a3.592,3.592,0,0,1,7.183,0Zm-22.98.7v10.046H638.3V298.418a3.2,3.2,0,1,0-6.393,0v10.046h-5.023V298.418a3.2,3.2,0,1,0-6.393,0v10.046h-5.023V298.418a8.213,8.213,0,0,1,8.089-8.217c.043,0,.087,0,.13,0s.087,0,.128,0a8.2,8.2,0,0,1,5.58,2.3,8.2,8.2,0,0,1,5.578-2.3c.043,0,.087,0,.13,0s.087,0,.128,0a8.133,8.133,0,0,1,3.069.644A8.215,8.215,0,0,1,643.32,298.418Zm7.307,10.046H645.6V289.993h5.023Zm7.549,0h-5.023V281.979h5.023Zm-7.321-23.722a2.74,2.74,0,1,1-2.74-2.74A2.74,2.74,0,0,1,650.854,284.742Zm43.267,18.451a5.061,5.061,0,0,1-2.5,4.08l-.164.094a8.8,8.8,0,0,1-8.932-.247q-.075-.044-.151-.1c-.021-.011-.039-.025-.059-.039a5.464,5.464,0,0,1-1.9-2.251c-.059-.13-.114-.26-.162-.393l1.47-.737,2.087-1.046.215-.107a3.243,3.243,0,0,0,.641,1.349,3.276,3.276,0,0,0,4.6.518l.08-.066a1.532,1.532,0,0,0,.162-2.087,1.549,1.549,0,0,0-.7-.5h0c-.043-.014-.084-.025-.128-.037l-.037-.009-1.888-.543-2.288-.655s0-.009.007-.016c-.071-.011-.142-.027-.212-.043h0v0l-.009,0-.381-.11a4.633,4.633,0,0,1-1.11-.525,4.769,4.769,0,0,1-1.251-1.167,4.809,4.809,0,0,1-.8-4.171,4.725,4.725,0,0,1,.493-1.171,4.835,4.835,0,0,1,1.055-1.256c.007-.007.016-.011.023-.018.055-.046.112-.089.169-.132s.112-.087.171-.126a.193.193,0,0,1,.025-.021,7.82,7.82,0,0,1,9.491.295,4.984,4.984,0,0,1,1.575,2.278L690.2,296l-.258.13a2.814,2.814,0,0,0-4.621-1.783,1.191,1.191,0,0,0-.1.089,1.383,1.383,0,0,0,.619,2.317l1.817.523,1.961.562.068.021.58.167.032.007.249.073a5.055,5.055,0,0,1,1.132.511,5.234,5.234,0,0,1,.874.667,5.072,5.072,0,0,1,.927,1.189,4.939,4.939,0,0,1,.642,2.722Z" transform="translate(-409.676 -142.46)" fill="#e6484b"/>
  </g>
</svg>
